HIERARCHY
ROOT Hips
{
    OFFSET   0.000000   0.000000   0.000000
    CHANNELS 6 Xposition Yposition Zposition Zrotation Xrotation Yrotation
    JOINT Chest
    {
        OFFSET   0.000000   8.007230   0.000000
        CHANNELS 3 Zrotation Xrotation Yrotation
        JOINT Chest2
        {
            OFFSET   0.000000  22.077100   0.000000
            CHANNELS 3 Zrotation Xrotation Yrotation
            JOINT Neck
            {
                OFFSET   0.000000  23.254800   0.000000
                CHANNELS 3 Zrotation Xrotation Yrotation
                JOINT Head
                {
                    OFFSET   0.000010  14.370000   1.956600
                    CHANNELS 3 Zrotation Xrotation Yrotation
                    End Site
                    {
                        OFFSET   0.000000  19.566000   0.000000
                    }
                }
            }
            JOINT LeftCollar
            {
                OFFSET   3.911900  19.017000  -0.467062
                CHANNELS 3 Zrotation Xrotation Yrotation
                JOINT LeftShoulder
                {
                    OFFSET  10.383700   0.000000   0.000000
                    CHANNELS 3 Zrotation Xrotation Yrotation
                    JOINT LeftElbow
                    {
                        OFFSET  26.662100   0.001193   0.000835
                        CHANNELS 3 Zrotation Xrotation Yrotation
                        JOINT LeftWrist
                        {
                            OFFSET  28.869000  -0.000058  -0.000075
                            CHANNELS 3 Zrotation Xrotation Yrotation
                            JOINT LeftFinger0
                            {
                                OFFSET   2.044660  -2.323460   3.252850
                                CHANNELS 3 Zrotation Xrotation Yrotation
                                JOINT LeftFinger01
                                {
                                    OFFSET   3.088130   0.000000   0.000000
                                    CHANNELS 3 Zrotation Xrotation Yrotation
                                    JOINT LeftFinger02
                                    {
                                        OFFSET   2.639450   0.000000   0.000000
                                        CHANNELS 3 Zrotation Xrotation Yrotation
                                        End Site
                                        {
                                            OFFSET   2.582190   0.000000   0.000000
                                        }
                                    }
                                }
                            }
                            JOINT LeftFinger1
                            {
                                OFFSET   8.364480   0.000000   3.252850
                                CHANNELS 3 Zrotation Xrotation Yrotation
                                JOINT LeftFinger11
                                {
                                    OFFSET   4.646920   0.000000   0.000000
                                    CHANNELS 3 Zrotation Xrotation Yrotation
                                    JOINT LeftFinger12
                                    {
                                        OFFSET   2.323460   0.000000   0.000000
                                        CHANNELS 3 Zrotation Xrotation Yrotation
                                        End Site
                                        {
                                            OFFSET   2.273050   0.000000   0.000000
                                        }
                                    }
                                }
                            }
                            JOINT LeftFinger2
                            {
                                OFFSET   8.364490   0.000016   1.078090
                                CHANNELS 3 Zrotation Xrotation Yrotation
                                JOINT LeftFinger21
                                {
                                    OFFSET   5.111620   0.000000   0.000000
                                    CHANNELS 3 Zrotation Xrotation Yrotation
                                    JOINT LeftFinger22
                                    {
                                        OFFSET   2.788150   0.000012   0.000000
                                        CHANNELS 3 Zrotation Xrotation Yrotation
                                        End Site
                                        {
                                            OFFSET   2.727660   0.000000   0.000000
                                        }
                                    }
                                }
                            }
                            JOINT LeftFinger3
                            {
                                OFFSET   7.899780   0.000014  -1.078090
                                CHANNELS 3 Zrotation Xrotation Yrotation
                                JOINT LeftFinger31
                                {
                                    OFFSET   4.646930   0.000000   0.000000
                                    CHANNELS 3 Zrotation Xrotation Yrotation
                                    JOINT LeftFinger32
                                    {
                                        OFFSET   2.323470   0.000000   0.000000
                                        CHANNELS 3 Zrotation Xrotation Yrotation
                                        End Site
                                        {
                                            OFFSET   2.273050   0.000000   0.000000
                                        }
                                    }
                                }
                            }
                            JOINT LeftFinger4
                            {
                                OFFSET   7.435090   0.000000  -3.252850
                                CHANNELS 3 Zrotation Xrotation Yrotation
                                JOINT LeftFinger41
                                {
                                    OFFSET   3.717550   0.000000   0.000000
                                    CHANNELS 3 Zrotation Xrotation Yrotation
                                    JOINT LeftFinger42
                                    {
                                        OFFSET   1.858770   0.000000   0.000000
                                        CHANNELS 3 Zrotation Xrotation Yrotation
                                        End Site
                                        {
                                            OFFSET   1.818440   0.000000   0.000000
                                        }
                                    }
                                }
                            }
                        }
                    }
                }
            }
            JOINT RightCollar
            {
                OFFSET  -3.911900  19.017000  -0.467063
                CHANNELS 3 Zrotation Xrotation Yrotation
                JOINT RightShoulder
                {
                    OFFSET -10.383700   0.000023   0.000000
                    CHANNELS 3 Zrotation Xrotation Yrotation
                    JOINT RightElbow
                    {
                        OFFSET -26.662100   0.001246   0.001011
                        CHANNELS 3 Zrotation Xrotation Yrotation
                        JOINT RightWrist
                        {
                            OFFSET -28.869000  -0.000026  -0.000078
                            CHANNELS 3 Zrotation Xrotation Yrotation
                            JOINT RightFinger0
                            {
                                OFFSET  -2.044660  -2.323490   3.252850
                                CHANNELS 3 Zrotation Xrotation Yrotation
                                JOINT RightFinger01
                                {
                                    OFFSET  -3.088130   0.000000   0.000000
                                    CHANNELS 3 Zrotation Xrotation Yrotation
                                    JOINT RightFinger02
                                    {
                                        OFFSET  -2.639460   0.000000   0.000000
                                        CHANNELS 3 Zrotation Xrotation Yrotation
                                        End Site
                                        {
                                            OFFSET  -2.582190   0.000000   0.000000
                                        }
                                    }
                                }
                            }
                            JOINT RightFinger1
                            {
                                OFFSET  -8.364480   0.000000   3.252850
                                CHANNELS 3 Zrotation Xrotation Yrotation
                                JOINT RightFinger11
                                {
                                    OFFSET  -4.646920   0.000000   0.000000
                                    CHANNELS 3 Zrotation Xrotation Yrotation
                                    JOINT RightFinger12
                                    {
                                        OFFSET  -2.323470   0.000000   0.000000
                                        CHANNELS 3 Zrotation Xrotation Yrotation
                                        End Site
                                        {
                                            OFFSET  -2.273050   0.000000   0.000000
                                        }
                                    }
                                }
                            }
                            JOINT RightFinger2
                            {
                                OFFSET  -8.364480   0.000000   1.078090
                                CHANNELS 3 Zrotation Xrotation Yrotation
                                JOINT RightFinger21
                                {
                                    OFFSET  -5.111620   0.000000   0.000000
                                    CHANNELS 3 Zrotation Xrotation Yrotation
                                    JOINT RightFinger22
                                    {
                                        OFFSET  -2.788160   0.000000   0.000000
                                        CHANNELS 3 Zrotation Xrotation Yrotation
                                        End Site
                                        {
                                            OFFSET  -2.727660   0.000000   0.000000
                                        }
                                    }
                                }
                            }
                            JOINT RightFinger3
                            {
                                OFFSET  -7.899780   0.000000  -1.078090
                                CHANNELS 3 Zrotation Xrotation Yrotation
                                JOINT RightFinger31
                                {
                                    OFFSET  -4.646930   0.000000   0.000000
                                    CHANNELS 3 Zrotation Xrotation Yrotation
                                    JOINT RightFinger32
                                    {
                                        OFFSET  -2.323470   0.000000   0.000000
                                        CHANNELS 3 Zrotation Xrotation Yrotation
                                        End Site
                                        {
                                            OFFSET  -2.273050   0.000000   0.000000
                                        }
                                    }
                                }
                            }
                            JOINT RightFinger4
                            {
                                OFFSET  -7.435090   0.000000  -3.252850
                                CHANNELS 3 Zrotation Xrotation Yrotation
                                JOINT RightFinger41
                                {
                                    OFFSET  -3.717550   0.000000   0.000000
                                    CHANNELS 3 Zrotation Xrotation Yrotation
                                    JOINT RightFinger42
                                    {
                                        OFFSET  -1.858760   0.000000   0.000000
                                        CHANNELS 3 Zrotation Xrotation Yrotation
                                        End Site
                                        {
                                            OFFSET  -1.818440   0.000000   0.000000
                                        }
                                    }
                                }
                            }
                        }
                    }
                }
            }
        }
    }
    JOINT LeftHip
    {
        OFFSET   9.783010   0.000000   0.000000
        CHANNELS 3 Zrotation Xrotation Yrotation
        JOINT LeftKnee
        {
            OFFSET   0.000073 -41.789100   0.001749
            CHANNELS 3 Zrotation Xrotation Yrotation
            JOINT LeftAnkle
            {
                OFFSET   0.000111 -41.133200  -0.000179
                CHANNELS 3 Zrotation Xrotation Yrotation
                JOINT LeftToe
                {
                    OFFSET   0.000000  -6.358960  14.674500
                    CHANNELS 3 Zrotation Xrotation Yrotation
                    End Site
                    {
                        OFFSET   0.000000   0.000000   3.913200
                    }
                }
            }
        }
    }
    JOINT RightHip
    {
        OFFSET  -9.783010   0.000000   0.000000
        CHANNELS 3 Zrotation Xrotation Yrotation
        JOINT RightKnee
        {
            OFFSET   0.000424 -41.789200   0.005205
            CHANNELS 3 Zrotation Xrotation Yrotation
            JOINT RightAnkle
            {
                OFFSET   0.000000 -41.133200  -0.000155
                CHANNELS 3 Zrotation Xrotation Yrotation
                JOINT RightToe
                {
                    OFFSET   0.000000  -6.358960  14.674500
                    CHANNELS 3 Zrotation Xrotation Yrotation
                    End Site
                    {
                        OFFSET   0.000000   0.000000   3.913200
                    }
                }
            }
        }
    }
}
MOTION
Frames: 5
Frame Time:   0.016667
 -1.926590  89.637200  -3.968190  -4.430730  -9.561540  -9.424330   1.208000   6.140420   1.144590   2.311740  12.302700   2.176860   1.221570  -0.694496   0.016016   2.012860  -1.403380   5.481610  -6.331350  -2.746880   1.569030 -72.817100  17.551200  -2.164580  -1.489930  -2.050140 -17.337900  16.865400 -12.610300   8.644700  47.257900  44.529900 -78.862600 -31.803300   0.001672   0.014371 -10.906900   0.000826   0.006169 -37.887700   5.826160  -7.430430 -31.308900  -0.000930  -0.001283 -21.916200   0.004455  -0.008667 -31.252100  -2.333750   3.817950 -46.995300  -0.003217  -0.006571 -31.298900   0.000113  -0.014565 -31.401200  -2.344190   3.811450 -47.229400   0.000934  -0.013094 -31.448200   0.001284   0.000421 -40.642200  -2.928670   3.405800 -61.095200   0.002666  -0.001008 -40.689400   0.008988  -0.005947  10.968600  -0.134016   7.882320  67.166100  15.213200  -6.991780  -1.669770  -6.972910  18.929200 -15.158500  -7.917080   0.394431 -37.824900  28.553300  59.947000  30.114800  -0.002576  -0.005832  10.057400   0.004344  -0.000940  30.948200  -1.262490  -2.104620  25.340100   0.007276  -0.008170  17.725800   0.003244  -0.006939  30.632600  -3.541110  -5.952490  46.225200  -0.001122  -0.003350  30.785900  -0.002048  -0.001426  33.298900  -3.813620  -5.781140  50.236600  -0.005369   0.005183  33.457600   0.000474   0.006074  48.740800  -5.214020  -4.560550  73.408500   0.003093   0.006362  48.898900   0.004410   0.003454   2.854030  11.834200   4.137580   1.494420   0.002177   8.986290  -2.006390  -2.704540   3.974540  -0.000000   0.000000  -0.000000   5.794260   7.050060   1.701030  -2.063150   6.522380  -8.281050   2.303000  -7.402580   4.285770  -0.000000   0.000000   0.000000
 -1.917670  89.637200  -3.958920  -4.432390  -9.570900  -9.416870   1.208000   6.150890   1.142690   2.311810  12.323500   2.172850   1.221340  -0.694081   0.016019   2.012550  -1.403100   5.481000  -6.326100  -2.759730   1.566140 -72.813500  17.572700  -2.173850  -1.490210  -2.050050 -17.346000  16.875700 -12.612000   8.646840  47.268500  44.529700 -78.862400 -31.802700   0.001669   0.014370 -10.906900   0.000827   0.006173 -37.885400   5.826210  -7.430510 -31.306900  -0.000931  -0.001282 -21.914800   0.004456  -0.008666 -31.249800  -2.334050   3.822040 -46.992000  -0.003217  -0.006563 -31.296600   0.000107  -0.014565 -31.402300  -2.344480   3.815560 -47.227900   0.000933  -0.013092 -31.449300   0.001279   0.000431 -40.639100  -2.929060   3.406050 -61.090300   0.002662  -0.001001 -40.686100   0.008983  -0.005945  10.960700  -0.150426   7.889840  67.155400  15.221700  -6.984880  -1.677670  -6.957950  18.933800 -15.157200  -7.910330   0.404292 -37.805600  28.589000  59.955600  30.183100  -0.002582  -0.005829  10.091500   0.004347  -0.000950  30.941000  -1.263160  -2.106170  25.334200   0.007297  -0.008194  17.725400   0.003252  -0.006957  30.632600  -3.541110  -5.952750  46.225200  -0.001112  -0.003393  30.785900  -0.002059  -0.001452  33.305300  -3.813920  -5.781320  50.247100  -0.005385   0.005171  33.464600   0.000458   0.006054  48.741000  -5.214310  -4.560560  73.413400   0.003068   0.006341  48.899200   0.004399   0.003469   2.854380  11.834700   4.137250   1.494370   0.029606   8.981570  -2.001690  -2.726980   3.969410  -0.000000   0.000000   0.000000   5.792010   7.061990   1.701070  -2.061730   6.529860  -8.284700   2.302190  -7.403020   4.276440   0.000000   0.000000   0.000000
 -1.902640  89.637200  -3.942930  -4.436710  -9.588120  -9.403140   1.208020   6.169320   1.139400   2.311920  12.360300   2.165910   1.221120  -0.693666   0.016022   2.012190  -1.402830   5.478100  -6.317050  -2.782790   1.559720 -72.806700  17.617100  -2.190950  -1.490570  -2.049920 -17.357600  16.892900 -12.617700   8.652000  47.279100  44.529400 -78.862100 -31.802100   0.001667   0.014370 -10.906800   0.000830   0.006183 -37.883100   5.826320  -7.430630 -31.305000  -0.000934  -0.001280 -21.913500   0.004456  -0.008665 -31.247500  -2.334340   3.827990 -46.988600  -0.003216  -0.006543 -31.294400   0.000088  -0.014566 -31.405900  -2.344770   3.821550 -47.226500   0.000929  -0.013084 -31.452900   0.001265   0.000458 -40.636000  -2.929450   3.406300 -61.085400   0.002653  -0.000980 -40.682900   0.008968  -0.005941  10.949700  -0.184279   7.904390  67.136000  15.242300  -6.978380  -1.691090  -6.933290  18.950400 -15.155900  -7.903590   0.414152 -37.758100  28.651500  59.962500  30.329400  -0.002604  -0.005826  10.164700   0.004356  -0.000970  30.933500  -1.267020  -2.113090  25.328400   0.007346  -0.008252  17.725000   0.003271  -0.007004  30.632500  -3.541100  -5.954570  46.225200  -0.001091  -0.003501  30.785900  -0.002086  -0.001519  33.312200  -3.816010  -5.782610  50.257500  -0.005425   0.005143  33.471500   0.000416   0.006001  48.741000  -5.216300  -4.560570  73.418400   0.003005   0.006290  48.899500   0.004371   0.003506   2.854730  11.837700   4.136950   1.494330   0.057037   8.972900  -1.992960  -2.749420   3.960680  -0.000000   0.000000  -0.000000   5.787050   7.085270   1.701140  -2.059170   6.540010  -8.295430   2.301380  -7.403470   4.267110   0.000000   0.000000  -0.000000
 -1.889900  89.637300  -3.929300  -4.444020  -9.605170  -9.389520   1.208190   6.186230   1.136810   2.312270  12.394100   2.160390   1.222460  -0.695744   0.016022   2.013640  -1.407800   5.470980  -6.308730  -2.805300   1.550610 -72.795800  17.671300  -2.208000  -1.489860  -2.060820 -17.363100  16.909600 -12.628800   8.661850  47.267900  44.529700 -78.863200 -31.807300   0.001672   0.014387 -10.906900   0.000841   0.006199 -37.893800   5.826470  -7.430760 -31.313900  -0.000944  -0.001281 -21.919800   0.004457  -0.008665 -31.254300  -2.332990   3.831350 -46.998700  -0.003216  -0.006513 -31.301100   0.000047  -0.014567 -31.413500  -2.343470   3.824920 -47.235900   0.000921  -0.013072 -31.460400   0.001243   0.000500 -40.643100  -2.927760   3.404800 -61.095600   0.002639  -0.000946 -40.689700   0.008944  -0.005933  10.945300  -0.226533   7.918160  67.114700  15.269300  -6.981270  -1.698920  -6.914020  18.973700 -15.152900  -7.904520   0.411287 -37.686800  28.705300  59.949300  30.515400  -0.002641  -0.005832  10.257700   0.004372  -0.000990  30.934400  -1.279120  -2.133030  25.329500   0.007419  -0.008339  17.727900   0.003304  -0.007078  30.626800  -3.551380  -5.974150  46.218500  -0.001059  -0.003665  30.781500  -0.002128  -0.001622  33.310400  -3.828810  -5.801120  50.257200  -0.005487   0.005102  33.471300   0.000353   0.005919  48.737900  -5.233430  -4.574730  73.417800   0.002907   0.006213  48.898200   0.004328   0.003562   2.851900  11.882000   4.137730   1.491580   0.017025   8.964760  -1.980540  -2.739120   3.953120   0.000000   0.000000   0.000000   5.781320   7.111410   1.692190  -2.056830   6.542480  -8.314480   2.300830  -7.402100   4.275970  -0.000000   0.000000  -0.000000
 -1.877700  89.637400  -3.914500  -4.452080  -9.624370  -9.374070   1.208390   6.204150   1.133520   2.312850  12.429900   2.153450   1.226000  -0.700401   0.016023   2.017630  -1.418230   5.463360  -6.300980  -2.828540   1.540710 -72.780300  17.734400  -2.227340  -1.488620  -2.084180 -17.366700  16.920300 -12.641400   8.668870  47.252900  44.531100 -78.868400 -31.814000   0.001680   0.014415 -10.907100   0.000858   0.006216 -37.909200   5.826600  -7.430830 -31.326700  -0.000956  -0.001281 -21.928700   0.004457  -0.008666 -31.264200  -2.330470   3.832840 -47.013200  -0.003215  -0.006473 -31.310800   0.000000  -0.014568 -31.421600  -2.341020   3.826420 -47.249700   0.000911  -0.013056 -31.468300   0.001213   0.000556 -40.653800  -2.924580   3.401290 -61.110800   0.002620  -0.000904 -40.699800   0.008912  -0.005923  10.943600  -0.273550   7.938570  67.097600  15.309400  -6.996570  -1.713910  -6.895250  19.025800 -15.132600  -7.911060   0.391236 -37.599400  28.767000  59.932500  30.739000  -0.002693  -0.005840  10.369500   0.004393  -0.001020  30.938800  -1.288020  -2.147600  25.333300   0.007508  -0.008446  17.733300   0.003344  -0.007168  30.614300  -3.561660  -5.993220  46.201300  -0.001021  -0.003868  30.770100  -0.002179  -0.001749  33.308200  -3.839820  -5.819310  50.255300  -0.005564   0.005053  33.470000   0.000275   0.005817  48.731800  -5.248850  -4.589810  73.413400   0.002788   0.006119  48.893400   0.004276   0.003631   2.848740  11.928100   4.138540   1.488830  -0.022990   8.954660  -1.972320  -2.728820   3.945810   0.000000   0.000000   0.000000   5.775690   7.140880   1.676140  -2.054110   6.543640  -8.337630   2.298180  -7.396600   4.291130  -0.000000   0.000000  -0.000000
